<svg version="1.2" xmlns="http://www.w3.org/2000/svg" viewBox="0 0 62 62" width="62" height="62">
	<title>has-mnemonic-svg</title>
	<style>
		.s0 { mix-blend-mode: luminosity;fill: #f5f9ff } 
		.s1 { mix-blend-mode: luminosity;fill: #0a55c6 } 
		.s2 { mix-blend-mode: luminosity;fill: #1668bc } 
		.s3 { mix-blend-mode: luminosity;fill: #2e65b8 } 
		.s4 { mix-blend-mode: luminosity;fill: #698aca } 
	</style>
	<g id="Layer">
		<path id="Layer" class="s0" d="m31 0c17.1 0 31 13.9 31 31 0 11.1-5.9 21.3-15.5 26.8-9.6 5.6-21.4 5.6-31 0-9.6-5.5-15.5-15.7-15.5-26.8 0-17.1 13.9-31 31-31z"/>
		<path id="Layer" fill-rule="evenodd" class="s1" d="m51.9 21.7v22.4c0 2.5-2.1 4.6-4.6 4.6h-32.6c-2.5 0-4.6-2.1-4.6-4.6v-26.2c0-2.5 2.1-4.6 4.6-4.6h32.6c2.3 0 4.3 1.7 4.6 4h-36.5v4.4zm-4.6 11.5c0-2-1.6-3.6-3.6-3.6-2 0-3.6 1.6-3.6 3.6 0 2 1.6 3.6 3.6 3.6 2 0 3.6-1.6 3.6-3.6z"/>
		<path id="Layer" fill-rule="evenodd" class="s2" d="m51.9 23.2c-1.8 12.9-11.5 22.6-24.1 25.5h-13.1c-2.5 0-4.6-2.1-4.6-4.6v-26.2c0-2.5 2.1-4.6 4.6-4.6h32.6c2.3 0 4.3 1.7 4.6 4h-36.5v4.4h36.5zm-4.6 10c0-2-1.6-3.6-3.6-3.6-2 0-3.6 1.6-3.6 3.6 0 2 1.6 3.6 3.6 3.6 2 0 3.6-1.6 3.6-3.6z"/>
		<path id="Layer" class="s3" d="m15.4 21.7h24.8c-5.2 10.3-16 16.7-28.4 16.7q-0.9 0-1.7-0.1v-20.4c0-2.5 2.1-4.6 4.6-4.6h28.2q-0.4 2-1.1 4h-26.4z"/>
		<path id="Layer" class="s4" d="m10.1 26.6v-8.7c0-2.5 2.1-4.6 4.6-4.6h15.5q-1.5 2.1-3.2 4h-11.6v4.4h7.4c-3.7 2.7-8 4-12.7 4.9z"/>
	</g>
</svg>